[img]http://i.imgur.com/0odz9uR.jpg[/img]


[code]

The.Collection.2012.480p.BDRip.XViD.AC3-26k

 
http://www.imdb.com/title/tt1748227/


Plot:

A man who escapes from the vicious grips of the serial killer known as "The Collector" is blackmailed 
to rescue an innocent girl from the killer's booby-trapped warehouse.



Sources - VIDEO: The Collection 2012 1080p FULL BluRay DTS x264 ..... thanks .... :P
          AUDIO: The Collection 2012 1080p FULL BluRay DTS x264 ..... thanks .... :P

 
          

Format                                   : AVI
Format/Info                              : Audio Video Interleave
File size                                : 1.44 GiB
Duration                                 : 1h 21mn
Overall bit rate                         : 2 520 Kbps

Video
ID                                       : 0
Format                                   : MPEG-4 Visual
Format profile                           : Advanced Simple@L5
Format settings, BVOP                    : 2
Format settings, QPel                    : No
Format settings, GMC                     : No warppoints
Format settings, Matrix                  : Default (H.263)
Codec ID                                 : XVID
Codec ID/Hint                            : XviD
Duration                                 : 1h 21mn
Bit rate                                 : 2 000 Kbps
Width                                    : 720 pixels
Height                                   : 304 pixels
Display aspect ratio                     : 2.35:1
Frame rate                               : 24.000 fps
Color space                              : YUV
Chroma subsampling                       : 4:2:0
Bit depth                                : 8 bits
Scan type                                : Progressive
Compression mode                         : Lossy
Bits/(Pixel*Frame)                       : 0.381
Stream size                              : 1.14 GiB (79%)
Writing library                          : XviD 1.2.1 (UTC 2008-12-04)

Audio
ID                                       : 1
Format                                   : AC-3
Format/Info                              : Audio Coding 3
Mode extension                           : CM (complete main)
Format settings, Endianness              : Big
Codec ID                                 : 2000
Duration                                 : 1h 21mn
Bit rate mode                            : Constant
Bit rate                                 : 512 Kbps
Channel(s)                               : 6 channels
Channel positions                        : Front: L C R, Side: L R, LFE
Sampling rate                            : 48.0 KHz
Bit depth                                : 16 bits
Compression mode                         : Lossy
Stream size                              : 299 MiB (20%)
Alignment                                : Aligned on interleaves
Interleave, duration                     : 64 ms (1.54 video frames)
Interleave, preload duration             : 192 ms
Title                                    : 512 


Notes -

Took the BD made a script to make magic happen and this is the outcome.. enjoy

[/code]

Screens:

[img]http://i.imgur.com/MgUvutk.png[/img]
[img]http://i.imgur.com/6FZNagv.png[/img]
[img]http://i.imgur.com/BouGDsc.png[/img]
[img]http://i.imgur.com/R7yrKvC.png[/img]
[img]http://i.imgur.com/EHf0BgM.jpg[/img]
[img]http://imageshack.us/a/img217/3103/40813920.png[/img]
[img]http://imageshack.us/a/img515/3363/76635453.png[/img]
[img]http://imageshack.us/a/img836/9822/36762945.png[/img]
[img]http://imageshack.us/a/img209/340/31471177.png[/img]
[img]http://imageshack.us/a/img577/1157/23751598.png[/img]

Greetz:
SILENT HD|CM8|RX|VISION|HDSCENE|xTriLL|ADTRG|CRYS|REMIXHD|HS|Tommiecook
BIDA|RX|REFILL|INSPiRAL|AXED|HOPE|Anonymous|GooN|NOIR|Blackjesus|Gabroo Punjab Deh
|BIGKATS|RESiSTANCE|TRiNiTY|LEGION

To all the people who have helped me, you know who you are

Anything to offer email us @: 26k@hushmail.me 